<?xml version="1.0" encoding="UTF-8" standalone="no"?>
<!DOCTYPE svg PUBLIC "-//W3C//DTD SVG 1.1//EN" "http://www.w3.org/Graphics/SVG/1.1/DTD/svg11.dtd">
<svg width="100%" height="100%" viewBox="0 0 720 94" version="1.1" xmlns="http://www.w3.org/2000/svg" xmlns:xlink="http://www.w3.org/1999/xlink" xml:space="preserve" xmlns:serif="http://www.serif.com/" style="fill-rule:evenodd;clip-rule:evenodd;stroke-linejoin:round;stroke-miterlimit:2;">
    <g transform="matrix(0.305242,0,0,0.305242,-40.148,-44.3032)">
        <g transform="matrix(0.707107,-0.707107,0.707107,0.707107,-235.479,328.123)">
            <path d="M452.745,324.641C450.885,381.086 404.479,426.336 347.588,426.336C290.697,426.336 244.291,381.086 242.431,324.641L452.745,324.641Z" style="fill:white;"/>
        </g>
        <g>
            <g transform="matrix(0.707107,-0.707107,0.707107,0.707107,-219.518,277.188)">
                <path d="M242.431,317.601C244.291,261.157 290.697,215.906 347.588,215.906C404.479,215.906 450.885,261.157 452.745,317.601L242.431,317.601Z" style="fill:white;"/>
            </g>
            <path d="M454.34,300.634L454.332,300.643L458.802,305.296L463.58,300.706L463.585,300.711L463.77,300.523L464.274,300.039L464.261,300.025L564.253,198.422L564.253,400.604L352.229,400.604L352.229,196.879L454.34,300.634ZM561.392,159.539L459,263.579L356.609,159.539L561.392,159.539Z" style="fill:white;"/>
        </g>
    </g>
    <g transform="matrix(0.595502,0,0,0.595502,-56.3225,-250.248)">
        <path d="M376.785,481.773C376.785,482.313 376.38,483.041 375.571,483.959C374.06,483.581 372.549,483.392 371.038,483.392C367.855,483.392 365.184,484.094 363.025,485.497C360.435,487.116 359.14,489.409 359.14,492.377C359.14,494.265 360.516,496.666 363.268,499.58C367.423,503.951 369.986,506.892 370.957,508.403C373.709,512.504 375.085,516.902 375.085,521.596C375.085,524.348 374.546,527.262 373.466,530.338C372.225,533.737 370.661,536.219 368.772,537.784C364.779,541.238 360.111,544.152 354.769,546.526C348.995,549.008 343.68,550.249 338.824,550.249C337.745,550.249 335.33,547.322 331.58,541.467C327.83,535.612 325.954,532.038 325.954,530.742C325.954,530.257 326.251,529.96 326.845,529.852C330.622,529.151 334.426,528.449 338.257,527.748C343.006,526.237 345.38,523.755 345.38,520.301C345.38,517.927 344.004,515.175 341.252,512.045C336.342,506.595 333.779,503.708 333.563,503.385C330.811,499.499 329.435,495.398 329.435,491.082C329.435,482.988 333.536,476.108 341.738,470.442C349.076,465.423 356.928,462.914 365.291,462.914C366.155,462.914 368.286,465.815 371.686,471.615C375.085,477.416 376.785,480.802 376.785,481.773Z" style="fill:white;fill-rule:nonzero;"/>
        <path d="M442.59,523.539C442.59,525.158 442.387,527.613 441.983,530.904C441.578,534.196 441.376,536.611 441.376,538.149C441.376,539.686 441.214,540.671 440.89,541.103C440.566,541.535 439.676,542.155 438.219,542.964C431.258,546.796 423.542,548.711 415.07,548.711C399.475,548.711 391.678,542.749 391.678,530.823C391.678,527.262 391.813,521.906 392.083,514.757C392.353,507.607 392.488,502.251 392.488,498.69C392.488,496.316 391.112,495.129 388.36,495.129L387.307,495.129C386.822,495.183 386.471,495.21 386.255,495.21C384.205,495.21 383.179,494.481 383.179,493.024C383.179,492.161 383.247,490.839 383.382,489.058C383.517,487.277 383.584,485.955 383.584,485.092C383.584,483.959 383.517,482.232 383.382,479.912C383.247,477.591 383.179,475.865 383.179,474.732C383.179,473.652 384.906,473.059 388.36,472.951C390.302,472.897 391.354,472.357 391.516,471.332C391.84,469.282 391.948,466.044 391.84,461.619C391.624,454.658 391.516,451.34 391.516,451.664C391.516,445.404 392.11,442.274 393.297,442.274C394.754,442.274 396.831,442.598 399.529,443.246C402.605,443.947 404.737,444.352 405.924,444.46C408.676,444.838 412.831,445.35 418.389,445.998C419.738,446.106 420.412,446.564 420.412,447.374C420.412,449.532 420.237,452.797 419.886,457.167C419.535,461.538 419.36,464.83 419.36,467.042C419.36,469.686 420.142,471.008 421.707,471.008C423.596,471.008 426.456,470.927 430.287,470.766C434.118,470.604 437.005,470.523 438.947,470.523C440.135,470.523 440.728,470.927 440.728,471.737C440.728,472.978 440.593,474.84 440.323,477.322C440.054,479.804 439.919,481.666 439.919,482.907C439.919,484.202 439.946,486.09 440,488.572C440.054,491.055 440.081,492.943 440.081,494.238C440.081,495.371 439.298,495.938 437.733,495.938C436.654,495.938 434.846,495.898 432.31,495.817C429.774,495.736 427.966,495.695 426.887,495.695L420.817,495.695C420.007,495.695 419.603,496.882 419.603,499.257L419.603,505.003C419.657,507.593 419.684,509.509 419.684,510.75C419.684,515.283 420.196,518.413 421.221,520.139C422.678,522.46 425.538,523.62 429.801,523.62C431.15,523.62 433.079,523.309 435.588,522.689C438.098,522.068 439.865,521.758 440.89,521.758C442.023,521.758 442.59,522.352 442.59,523.539Z" style="fill:white;fill-rule:nonzero;"/>
        <path d="M483.141,449.964C483.141,459.353 477.853,464.047 467.277,464.047C462.744,464.047 458.994,462.86 456.026,460.486C452.788,457.896 451.169,454.389 451.169,449.964C451.169,445.755 452.842,442.301 456.188,439.603C459.263,437.121 462.96,435.88 467.277,435.88C471.486,435.88 475.128,437.148 478.204,439.684C481.495,442.382 483.141,445.809 483.141,449.964ZM481.037,510.103C481.037,514.042 481.117,519.91 481.279,527.707C481.441,535.504 481.522,541.346 481.522,545.231C481.522,546.364 480.848,547.039 479.499,547.254C477.664,547.578 473.536,547.74 467.115,547.74C460.639,547.74 456.485,547.578 454.65,547.254C453.463,547.039 452.734,546.688 452.464,546.202C452.357,545.986 452.303,545.177 452.303,543.774C452.303,540.051 452.384,534.452 452.545,526.979C452.707,519.505 452.788,513.88 452.788,510.103C452.788,494.778 452.195,482.583 451.008,473.517C450.9,472.654 450.846,472.088 450.846,471.818C450.846,470.739 451.574,470.199 453.031,470.199C454.542,470.199 456.849,470.361 459.951,470.685C463.054,471.008 465.388,471.17 466.953,471.17C468.518,471.17 470.865,471.035 473.995,470.766C477.124,470.496 479.472,470.361 481.037,470.361C482.332,470.361 482.979,470.9 482.979,471.98C482.979,472.195 482.925,472.708 482.817,473.517C481.63,484.04 481.037,496.235 481.037,510.103Z" style="fill:white;fill-rule:nonzero;"/>
        <path d="M550.241,493.995C550.187,493.995 548.554,493.564 545.344,492.7C542.133,491.837 539.53,491.405 537.533,491.405C532.731,491.405 528.899,492.849 526.039,495.736C523.18,498.623 521.75,502.467 521.75,507.27C521.75,512.234 523.314,516.133 526.444,518.966C529.574,521.799 533.648,523.215 538.666,523.215C541.04,523.215 543.711,522.608 546.679,521.394C549.647,520.18 551.05,519.573 550.888,519.573C551.806,519.573 552.993,522.999 554.45,529.852C555.691,536.112 556.311,540.266 556.311,542.317C556.311,544.367 552.966,546.121 546.275,547.578C541.094,548.711 536.912,549.278 533.729,549.278C521.858,549.278 512.064,545.285 504.347,537.299C496.631,529.313 492.773,519.357 492.773,507.432C492.773,495.614 496.645,485.672 504.388,477.605C512.131,469.538 521.911,465.504 533.729,465.504C541.769,465.504 548.838,467.231 554.935,470.685C556.338,471.44 557.04,472.168 557.04,472.87C557.04,473.571 556.23,476.755 554.611,482.421C553.101,487.871 552.116,491.163 551.657,492.296C551.198,493.429 550.726,493.995 550.241,493.995Z" style="fill:white;fill-rule:nonzero;"/>
        <path d="M655.544,494.4C655.544,506.325 649.69,515.391 637.98,521.596C636.901,522.136 636.361,522.702 636.361,523.296C636.361,524.213 638.871,528.031 643.889,534.749C648.907,541.467 651.416,544.988 651.416,545.312C651.416,546.769 644.267,547.497 629.967,547.497C624.463,547.497 621.28,546.796 620.416,545.393C618.258,541.777 614.885,536.597 610.299,529.852C610.029,529.528 605.172,529.151 595.729,528.719C595.729,530.392 595.756,533.063 595.81,536.732C595.864,540.401 595.891,543.126 595.891,544.907C595.891,546.526 595.109,547.416 593.544,547.578C592.573,547.686 588.31,547.74 580.755,547.74C574.226,547.74 570.422,547.632 569.343,547.416C567.886,547.146 567.157,546.04 567.157,544.098L567.157,494.562C567.157,487.925 566.914,477.996 566.429,464.776C565.943,451.556 565.7,441.654 565.7,435.071C565.7,433.776 566.429,433.101 567.886,433.047C570.746,433.047 575.035,432.993 580.755,432.885C582.266,432.777 584.883,432.454 588.607,431.914C591.898,431.428 594.488,431.186 596.377,431.186C597.24,431.186 597.672,431.968 597.672,433.533C597.672,435.583 597.51,438.362 597.186,441.87C596.808,445.971 596.593,448.777 596.539,450.288C596.053,461.889 595.81,470.873 595.81,477.241C595.81,478.752 595.999,479.534 596.377,479.588C596.862,479.264 597.51,478.671 598.319,477.807C605.334,470.523 613.86,466.88 623.897,466.88C633.34,466.88 640.84,469.039 646.398,473.356C652.496,478.158 655.544,485.173 655.544,494.4ZM623.411,499.661C623.411,493.132 619.715,489.867 612.322,489.867C609.031,489.867 605.523,491.109 601.8,493.591C597.807,496.235 595.81,499.122 595.81,502.251C595.81,506.73 596.431,509.428 597.672,510.345C598.643,510.993 601.746,511.317 606.98,511.317C617.934,511.317 623.411,507.432 623.411,499.661Z" style="fill:white;fill-rule:nonzero;"/>
        <path d="M744.741,489.544C744.741,500.012 744.417,506.379 743.77,508.646C742.96,511.344 737.052,521.111 726.044,537.946C724.317,540.59 719.865,546.715 712.688,556.32C704.756,566.896 700.251,572.481 699.171,573.074C697.876,573.884 689.593,574.288 674.323,574.288C672.002,574.288 670.437,574.019 669.628,573.479C668.927,571.267 668.036,568.65 666.957,565.628C666.094,563.739 665.23,561.824 664.367,559.881C663.126,557.075 662.505,555.214 662.505,554.296C662.505,553.271 662.964,552.758 663.881,552.758C678.882,552.758 686.383,549.332 686.383,542.479C686.383,541.885 682.713,536.516 675.375,526.372C667.766,515.957 663.584,509.374 662.829,506.622C662.397,505.057 662.181,499.472 662.181,489.867C662.181,487.925 662.235,484.998 662.343,481.085C662.451,477.173 662.505,474.246 662.505,472.303C662.505,470.9 663.396,470.199 665.176,470.199C667.928,470.199 672.097,470.28 677.682,470.442C683.267,470.604 687.435,470.685 690.187,470.685C691.32,470.685 691.887,471.521 691.887,473.194C691.887,474.705 691.806,476.984 691.644,480.033C691.482,483.082 691.401,485.362 691.401,486.873C691.401,493.672 691.509,498.285 691.725,500.714C691.887,502.602 693.505,506.11 696.581,511.236C699.819,516.578 702.166,519.249 703.623,519.249C704.864,519.249 706.969,516.605 709.936,511.317C712.688,506.298 714.172,502.926 714.388,501.199C714.928,496.451 715.198,491.297 715.198,485.74C715.198,484.283 715.063,482.07 714.793,479.102C714.523,476.135 714.388,473.895 714.388,472.384C714.388,471.359 714.955,470.846 716.088,470.846C718.84,470.846 722.954,470.739 728.431,470.523C733.908,470.307 738.023,470.199 740.775,470.199C742.178,470.199 743.122,470.9 743.608,472.303C744.363,474.786 744.741,480.532 744.741,489.544Z" style="fill:white;fill-rule:nonzero;"/>
        <g transform="matrix(1,0,0,1,-41.9814,0)">
            <path d="M925.238,544.26C925.238,546.148 924.429,547.2 922.81,547.416C921.191,547.632 917.198,547.74 910.831,547.74C904.248,547.74 900.147,547.578 898.528,547.254C896.909,546.931 896.1,545.609 896.1,543.288C896.1,540.806 896.181,537.096 896.343,532.159C896.504,527.222 896.585,523.512 896.585,521.03C896.585,511.587 896.477,504.868 896.262,500.875C895.938,494.454 892.889,491.243 887.115,491.243C884.579,491.243 882.057,492.309 879.547,494.441C877.038,496.572 875.649,498.933 875.379,501.523C875.163,503.789 875.055,510.426 875.055,521.434C875.055,523.97 875.136,527.815 875.298,532.968C875.46,538.122 875.541,541.993 875.541,544.583C875.541,546.364 874.758,547.254 873.194,547.254L848.669,547.254C847.158,547.254 846.402,546.148 846.402,543.936C846.402,541.4 846.483,537.595 846.645,532.523C846.807,527.451 846.888,523.62 846.888,521.03C846.888,519.033 846.834,516.011 846.726,511.964C846.618,507.917 846.564,504.868 846.564,502.818C846.564,495.102 843.623,491.243 837.742,491.243C835.367,491.243 832.804,492.161 830.052,493.995C827.03,495.992 825.52,498.096 825.52,500.309C825.52,505.219 825.547,512.558 825.601,522.325C825.654,532.091 825.681,539.403 825.681,544.26C825.681,545.609 825.52,546.445 825.196,546.769C824.872,547.092 824.036,547.308 822.687,547.416C820.258,547.632 816.427,547.74 811.193,547.74C807.794,547.74 803.935,547.578 799.619,547.254C798.324,547.146 797.555,546.958 797.312,546.688C797.069,546.418 796.948,545.609 796.948,544.26C796.948,539.943 796.975,533.481 797.028,524.874C797.082,516.268 797.109,509.806 797.109,505.489C797.109,496.64 796.462,486.684 795.167,475.622C795.059,474.974 795.005,474.489 795.005,474.165C795.005,473.248 795.383,472.627 796.138,472.303C797.325,471.818 799.565,471.413 802.856,471.089C806.903,470.712 809.304,470.469 810.06,470.361C810.6,470.253 812.731,469.686 816.454,468.661C819.098,467.906 821.23,467.528 822.849,467.528C823.874,467.528 824.413,469.403 824.467,473.153C824.521,476.904 824.737,478.779 825.115,478.779C825.654,478.563 826.275,478.185 826.976,477.645C831.833,473.868 835.664,471.278 838.47,469.875C842.625,467.879 847.131,466.88 851.987,466.88C856.951,466.88 861.376,467.987 865.261,470.199C869.632,472.681 872.465,476.162 873.76,480.64C876.62,476.755 880.559,473.491 885.577,470.846C890.596,468.202 895.479,466.88 900.228,466.88C907.35,466.88 913.151,468.526 917.63,471.818C922.702,475.541 925.238,480.856 925.238,487.763C925.238,490.623 925.157,494.926 924.996,500.673C924.834,506.42 924.753,510.723 924.753,513.583C924.753,516.983 924.834,522.095 924.996,528.921C925.157,535.747 925.238,540.86 925.238,544.26Z" style="fill:white;fill-rule:nonzero;"/>
        </g>
        <g transform="matrix(1,0,0,1,-41.9814,0)">
            <path d="M1021.96,506.784C1021.96,510.939 1022.21,517.117 1022.69,525.319C1023.18,533.521 1023.42,539.673 1023.42,543.774C1023.42,545.932 1022.48,547.092 1020.59,547.254C1013.89,547.74 1006.23,547.983 997.599,547.983C996.574,547.983 995.886,546.431 995.535,543.329C995.184,540.226 994.766,538.648 994.281,538.594C993.849,538.81 993.282,539.268 992.581,539.97C986.537,546.067 980.062,549.116 973.155,549.116C962.633,549.116 953.918,544.961 947.011,536.651C940.482,528.881 937.218,519.6 937.218,508.808C937.218,496.343 940.59,486.306 947.335,478.698C954.35,470.819 963.955,466.88 976.15,466.88C984.622,466.88 991.313,469.848 996.223,475.784C996.439,476.054 996.628,476.189 996.79,476.189C997.275,476.189 997.829,474.88 998.449,472.263C999.07,469.646 999.812,468.337 1000.68,468.337C1002.67,468.337 1006.48,468.904 1012.09,470.037C1017.43,471.116 1021.26,472.034 1023.58,472.789C1024.39,473.113 1024.8,473.544 1024.8,474.084C1024.8,474.3 1024.71,474.866 1024.55,475.784C1022.83,485.551 1021.96,495.884 1021.96,506.784ZM995.899,507.27C995.899,502.683 994.456,498.892 991.569,495.898C988.682,492.903 984.919,491.405 980.278,491.405C975.637,491.405 971.887,492.889 969.027,495.857C966.167,498.825 964.737,502.629 964.737,507.27C964.737,511.64 966.248,515.391 969.27,518.52C972.292,521.65 975.961,523.215 980.278,523.215C984.865,523.215 988.615,521.718 991.529,518.723C994.443,515.728 995.899,511.91 995.899,507.27Z" style="fill:white;fill-rule:nonzero;"/>
        </g>
        <g transform="matrix(1,0,0,1,-41.9814,0)">
            <path d="M1091.73,496.828C1091.73,498.933 1090.57,499.985 1088.25,499.985C1087.23,499.985 1085.73,499.918 1083.76,499.783C1081.79,499.648 1080.32,499.58 1079.35,499.58C1074.87,499.58 1071.82,500.282 1070.2,501.685C1068.58,503.088 1067.78,505.921 1067.78,510.184C1067.78,512.504 1067.82,516.025 1067.9,520.746C1067.98,525.468 1068.02,528.989 1068.02,531.309C1068.02,532.874 1068.12,535.208 1068.34,538.31C1068.56,541.413 1068.66,543.72 1068.66,545.231C1068.66,546.526 1067.78,547.254 1065.99,547.416C1063.4,547.632 1059.44,547.74 1054.1,547.74C1048.97,547.74 1044.87,547.578 1041.79,547.254C1040.01,547.039 1039.12,546.148 1039.12,544.583C1039.12,540.266 1039.15,533.805 1039.2,525.198C1039.26,516.591 1039.28,510.13 1039.28,505.813C1039.28,493.132 1038.12,482.691 1035.8,474.489C1035.69,474.003 1035.64,473.598 1035.64,473.275C1035.64,472.465 1036.05,471.926 1036.86,471.656C1039.82,471.332 1044.17,470.739 1049.89,469.875C1058.41,468.202 1062.81,467.366 1063.08,467.366C1064.05,467.366 1064.67,469.066 1064.94,472.465C1065.21,475.865 1065.7,477.565 1066.4,477.565C1065.64,477.565 1067.86,476.148 1073.04,473.315C1078.22,470.482 1083.21,469.066 1088.01,469.066C1091.03,469.066 1092.54,469.713 1092.54,471.008C1092.54,472.573 1092.38,474.786 1092.06,477.645C1091.73,480.721 1091.54,482.934 1091.49,484.283C1091.49,485.847 1091.52,487.925 1091.57,490.515C1091.68,493.699 1091.73,495.803 1091.73,496.828Z" style="fill:white;fill-rule:nonzero;"/>
        </g>
        <g transform="matrix(1,0,0,1,-41.9814,0)">
            <path d="M1191.13,494.4C1191.13,506.325 1185.27,515.391 1173.56,521.596C1172.49,522.136 1171.94,522.702 1171.94,523.296C1171.94,524.213 1174.45,528.031 1179.47,534.749C1184.49,541.467 1187,544.988 1187,545.312C1187,546.769 1179.85,547.497 1165.55,547.497C1160.05,547.497 1156.86,546.796 1156,545.393C1153.84,541.777 1150.47,536.597 1145.88,529.852C1145.61,529.528 1140.76,529.151 1131.31,528.719C1131.31,530.392 1131.34,533.063 1131.39,536.732C1131.45,540.401 1131.48,543.126 1131.48,544.907C1131.48,546.526 1130.69,547.416 1129.13,547.578C1128.16,547.686 1123.89,547.74 1116.34,547.74C1109.81,547.74 1106.01,547.632 1104.93,547.416C1103.47,547.146 1102.74,546.04 1102.74,544.098L1102.74,494.562C1102.74,487.925 1102.5,477.996 1102.01,464.776C1101.53,451.556 1101.28,441.654 1101.28,435.071C1101.28,433.776 1102.01,433.101 1103.47,433.047C1106.33,433.047 1110.62,432.993 1116.34,432.885C1117.85,432.777 1120.47,432.454 1124.19,431.914C1127.48,431.428 1130.07,431.186 1131.96,431.186C1132.82,431.186 1133.26,431.968 1133.26,433.533C1133.26,435.583 1133.09,438.362 1132.77,441.87C1132.39,445.971 1132.18,448.777 1132.12,450.288C1131.64,461.889 1131.39,470.873 1131.39,477.241C1131.39,478.752 1131.58,479.534 1131.96,479.588C1132.45,479.264 1133.09,478.671 1133.9,477.807C1140.92,470.523 1149.44,466.88 1159.48,466.88C1168.92,466.88 1176.42,469.039 1181.98,473.356C1188.08,478.158 1191.13,485.173 1191.13,494.4ZM1159,499.661C1159,493.132 1155.3,489.867 1147.91,489.867C1144.61,489.867 1141.11,491.109 1137.38,493.591C1133.39,496.235 1131.39,499.122 1131.39,502.251C1131.39,506.73 1132.02,509.428 1133.26,510.345C1134.23,510.993 1137.33,511.317 1142.56,511.317C1153.52,511.317 1159,507.432 1159,499.661Z" style="fill:white;fill-rule:nonzero;"/>
        </g>
        <g transform="matrix(1,0,0,1,-41.9814,0)">
            <path d="M1274.98,503.304C1274.98,508.754 1273.23,511.856 1269.72,512.612C1269.13,512.72 1263.54,513.313 1252.97,514.392C1246.6,515.094 1237.1,515.93 1224.48,516.902C1225.23,520.409 1227.52,523.08 1231.36,524.915C1234.49,526.426 1238.05,527.181 1242.04,527.181C1246.84,527.181 1251.67,525.886 1256.53,523.296C1258.58,522.001 1260.63,520.706 1262.68,519.411C1263.81,519.95 1265.71,522.702 1268.39,527.667C1271.06,532.631 1272.39,535.788 1272.39,537.137C1272.39,537.514 1271.99,538.135 1271.18,538.998C1264.6,546.067 1254.37,549.602 1240.5,549.602C1227.66,549.602 1217.3,545.851 1209.42,538.351C1201.33,530.742 1197.28,520.571 1197.28,507.836C1197.28,495.425 1200.89,485.254 1208.13,477.322C1215.57,469.12 1225.45,465.019 1237.75,465.019C1248.11,465.019 1256.91,468.796 1264.14,476.35C1271.37,483.905 1274.98,492.889 1274.98,503.304ZM1246.65,498.366C1246.65,495.021 1245.47,492.08 1243.09,489.544C1240.72,487.008 1237.88,485.74 1234.59,485.74C1231.19,485.74 1228.39,487.169 1226.17,490.029C1224.12,492.673 1223.1,495.776 1223.1,499.338C1223.1,500.794 1223.86,501.523 1225.37,501.523C1229.36,501.523 1235.56,500.902 1243.98,499.661C1245.76,499.391 1246.65,498.96 1246.65,498.366Z" style="fill:white;fill-rule:nonzero;"/>
        </g>
        <g transform="matrix(1,0,0,1,-41.9814,0)">
            <path d="M1338.04,523.539C1338.04,525.158 1337.83,527.613 1337.43,530.904C1337.02,534.196 1336.82,536.611 1336.82,538.149C1336.82,539.686 1336.66,540.671 1336.34,541.103C1336.01,541.535 1335.12,542.155 1333.66,542.964C1326.7,546.796 1318.99,548.711 1310.52,548.711C1294.92,548.711 1287.12,542.749 1287.12,530.823C1287.12,527.262 1287.26,521.906 1287.53,514.757C1287.8,507.607 1287.93,502.251 1287.93,498.69C1287.93,496.316 1286.56,495.129 1283.81,495.129L1282.75,495.129C1282.27,495.183 1281.92,495.21 1281.7,495.21C1279.65,495.21 1278.62,494.481 1278.62,493.024C1278.62,492.161 1278.69,490.839 1278.83,489.058C1278.96,487.277 1279.03,485.955 1279.03,485.092C1279.03,483.959 1278.96,482.232 1278.83,479.912C1278.69,477.591 1278.62,475.865 1278.62,474.732C1278.62,473.652 1280.35,473.059 1283.81,472.951C1285.75,472.897 1286.8,472.357 1286.96,471.332C1287.29,469.282 1287.39,466.044 1287.29,461.619C1287.07,454.658 1286.96,451.34 1286.96,451.664C1286.96,445.404 1287.56,442.274 1288.74,442.274C1290.2,442.274 1292.28,442.598 1294.98,443.246C1298.05,443.947 1300.18,444.352 1301.37,444.46C1304.12,444.838 1308.28,445.35 1313.83,445.998C1315.18,446.106 1315.86,446.564 1315.86,447.374C1315.86,449.532 1315.68,452.797 1315.33,457.167C1314.98,461.538 1314.81,464.83 1314.81,467.042C1314.81,469.686 1315.59,471.008 1317.15,471.008C1319.04,471.008 1321.9,470.927 1325.73,470.766C1329.56,470.604 1332.45,470.523 1334.39,470.523C1335.58,470.523 1336.17,470.927 1336.17,471.737C1336.17,472.978 1336.04,474.84 1335.77,477.322C1335.5,479.804 1335.36,481.666 1335.36,482.907C1335.36,484.202 1335.39,486.09 1335.44,488.572C1335.5,491.055 1335.53,492.943 1335.53,494.238C1335.53,495.371 1334.74,495.938 1333.18,495.938C1332.1,495.938 1330.29,495.898 1327.76,495.817C1325.22,495.736 1323.41,495.695 1322.33,495.695L1316.26,495.695C1315.45,495.695 1315.05,496.882 1315.05,499.257L1315.05,505.003C1315.1,507.593 1315.13,509.509 1315.13,510.75C1315.13,515.283 1315.64,518.413 1316.67,520.139C1318.12,522.46 1320.98,523.62 1325.25,523.62C1326.6,523.62 1328.53,523.309 1331.03,522.689C1333.54,522.068 1335.31,521.758 1336.34,521.758C1337.47,521.758 1338.04,522.352 1338.04,523.539Z" style="fill:white;fill-rule:nonzero;"/>
        </g>
    </g>
</svg>
